<?xml version="1.0"?>
<svg version="1.1" xmlns="http://www.w3.org/2000/svg" width="400" height="200" style="border: dashed 2px #aaa"><path fill="#325cc7" d="M16.26,115.12l0-1.68l2.38-0.56l0-15.12l-2.38-0.56l0-1.54l7.7-0.14l0,1.68l-2.38,0.56l0,15.12l2.38,0.56l0,1.68l-7.7,0z M45.6208,112.88l0-14l-0.84,2.1l-4.34,8.82l-2.24,0.14l-4.34-9.1l-0.7-1.96l0,14l2.66,0.56l0,1.68l-7.56,0l0-1.68l2.38-0.56l0-15.12l-2.38-0.56l0-1.54l6.3-0.14l5.068,11.2l5.292-11.06l5.88-0.14l0,1.68l-2.38,0.56l0,15.12l2.38,0.56l0,1.68l-7.84,0l0-1.68z"/><path fill="#" d=""/></svg>
