
        <svg xmlns="http://www.w3.org/2000/svg" xmlns:xlink="http://www.w3.org/1999/xlink" version="1.1" width="3176.470588235294" 
        height="1908.614975993164" viewBox="0 0 3176.470588235294 1908.614975993164">
			
			<g transform="scale(8.823529411764707) translate(10, 10)">
				<defs id="SvgjsDefs1364"></defs><g id="SvgjsG1365" featureKey="K5GtsI-0" transform="matrix(13.814898657786257,0,0,13.814898657786257,-11.113316660608788,-79.9882758764999)" fill="#0633d6"><path d="M1 20 c-0.16 0 -0.28 -0.56 -0.12 -0.58 c0.98 -0.14 1.7 -0.5 1.7 -1.8 l0 -9.24 c0 -1.3 -0.72 -1.66 -1.7 -1.8 c-0.16 -0.02 -0.04 -0.58 0.12 -0.58 l5.04 0 c0.16 0 0.28 0.56 0.12 0.58 c-0.86 0.12 -1.66 0.4 -1.66 1.8 l0 9.24 c0 1.4 0.8 1.68 1.66 1.8 c0.16 0.02 0.04 0.58 -0.12 0.58 l-5.04 0 z M25.34 19.42 c0.16 0.02 0.04 0.58 -0.12 0.58 l-4.68 0 c-0.14 0 -0.26 -0.56 -0.12 -0.58 c0.7 -0.12 1.38 -0.44 1.32 -1.8 l-0.36 -7.46 l-3.62 7.32 c-0.34 0.68 -0.7 1.62 -0.76 1.98 c-0.04 0.22 -0.34 0.36 -0.62 0.36 c-0.26 0 -0.42 -0.12 -0.54 -0.36 l-4.8 -9.16 l-0.32 7.32 c-0.06 1.3 0.58 1.7 1.34 1.8 c0.16 0.02 0.04 0.58 -0.12 0.58 l-3.9 0 c-0.16 0 -0.28 -0.56 -0.12 -0.58 c0.86 -0.1 1.62 -0.4 1.7 -1.8 l0.58 -11.62 c0.02 -0.28 0.64 -0.28 0.8 0 l5.82 11.08 l5.46 -11.08 c0.16 -0.28 0.78 -0.28 0.8 0.02 l0.58 11.6 c0.08 1.4 0.8 1.68 1.68 1.8 z"></path></g>
			</g>
		</svg>
	